<svg width="32" height="32" viewBox="0 0 32 32" fill="none" xmlns="http://www.w3.org/2000/svg">
<path fill-rule="evenodd" clip-rule="evenodd" d="M3.56987 0.0476272C1.82393 0.341068 0.324743 1.87536 0.0525168 3.6474C0.00739604 3.94109 -0.00799883 7.94601 0.00382893 16.2806L0.0212264 28.4839L0.197391 28.9845C0.689151 30.3818 1.62786 31.3205 3.0251 31.8123L3.52575 31.9884H16.0106H28.4955L28.9961 31.8117C30.4407 31.3018 31.4368 30.2624 31.8852 28.7968C31.9949 28.4379 32 27.871 32 15.9677V3.51416L31.8238 3.01352C31.3321 1.61628 30.3934 0.677565 28.9961 0.185806L28.4955 0.00964065L16.1984 0.000754181C9.25708 -0.00425228 3.75692 0.016149 3.56987 0.0476272ZM17.8567 6.57906C20.7714 7.1222 23.3242 8.9371 24.769 11.4932C26.7345 14.9705 26.3353 19.383 23.78 22.4241C22.7008 23.7084 21.367 24.6864 19.8521 25.304C19.1 25.6107 18.8229 25.6383 18.6125 25.4279L18.4513 25.2667V23.5542C18.4513 21.6462 18.42 21.4384 18.051 20.89L17.8404 20.5771L18.1615 20.5347C19.9854 20.2936 21.2168 19.5449 21.8219 18.3091C22.135 17.6697 22.2497 17.237 22.3296 16.3935C22.4009 15.6403 22.33 14.9179 22.1321 14.3833C22.0031 14.0346 21.5282 13.2354 21.4046 13.1591C21.3639 13.1339 21.3752 12.9939 21.4366 12.7605C21.6194 12.0659 21.4316 10.5345 21.1568 10.4787C20.7373 10.3934 19.755 10.7207 18.9609 11.2102L18.5116 11.4873L17.9651 11.3615C16.8906 11.1142 14.9236 11.1339 13.8747 11.4025L13.5225 11.4927L13.0388 11.202C12.2038 10.7001 11.0928 10.3486 10.8097 10.4967C10.7545 10.5257 10.6612 10.7203 10.6026 10.9294C10.4397 11.5099 10.4145 12.0818 10.5281 12.6166C10.6167 13.0333 10.6172 13.0966 10.5325 13.2111C9.78508 14.2239 9.58075 14.9102 9.64734 16.1851C9.71924 17.5625 10.0827 18.4742 10.8718 19.2562C11.2246 19.6058 11.4735 19.7887 11.8303 19.9606C12.3448 20.2085 13.2256 20.4685 13.7891 20.5388C13.9784 20.5625 14.1332 20.5925 14.1332 20.6054C14.1332 20.6183 14.0394 20.7517 13.9249 20.9018C13.8103 21.0519 13.6809 21.3126 13.6372 21.4812C13.5935 21.6498 13.5479 21.8214 13.5358 21.8626C13.4987 21.9893 12.884 22.1319 12.375 22.1319C11.9511 22.1319 11.8421 22.1066 11.4946 21.9273C11.1582 21.7536 11.0316 21.6352 10.66 21.146C10.1657 20.4953 10.0022 20.3524 9.56048 20.1846C9.20032 20.0477 8.8836 20.0332 8.72853 20.1466C8.56832 20.2638 8.64761 20.3908 9.07328 20.6992C9.51579 21.0198 9.80673 21.394 10.0738 21.9861C10.5508 23.0437 11.289 23.5148 12.4729 23.5172C12.7891 23.5179 13.1512 23.499 13.2776 23.4753L13.5074 23.4322V24.3582C13.5074 25.2228 13.4984 25.2938 13.3713 25.4291C13.1225 25.6939 12.6348 25.5806 11.4364 24.9798C7.69125 23.1021 5.55099 19.1001 6.09056 14.984C6.64471 10.757 9.98853 7.29329 14.1958 6.58826C14.5228 6.5335 14.8607 6.4763 14.9467 6.46122C15.3093 6.39764 17.3199 6.47905 17.8567 6.57906Z" fill="white"/>
</svg>
