<svg width="42" height="42" viewBox="0 0 42 42" fill="none" xmlns="http://www.w3.org/2000/svg">
<path fill-rule="evenodd" clip-rule="evenodd" d="M6 0C2.68629 0 0 2.68629 0 6V36C0 39.3137 2.68629 42 6 42H36C39.3137 42 42 39.3137 42 36V6C42 2.68629 39.3137 0 36 0H6ZM11.0032 6.87076C12.1245 6.37217 13.4566 6.11854 15.3941 6.03466C16.9979 5.96527 26.7052 6.0086 27.6503 6.08939C29.6551 6.26078 31.1744 6.74937 32.4388 7.62935C32.9991 8.01934 33.8891 8.9018 34.308 9.48281C35.1509 10.6519 35.6902 12.1781 35.916 14.033C36.0273 14.9465 36.0283 27.8802 35.9173 28.8508C35.6337 31.3285 34.8591 33.0706 33.3944 34.5249C32.1002 35.8097 30.4514 36.5584 28.349 36.8158C27.3201 36.9417 25.0341 36.9996 21.0697 37C16.8068 37.0005 14.5727 36.9376 13.5054 36.7871C9.79077 36.2631 7.26213 33.9985 6.41588 30.4379C6.07645 29.0097 5.99913 27.3454 6.00001 21.4873C6.00089 15.5303 6.08168 13.8857 6.44373 12.4573C6.85419 10.8379 7.50796 9.6319 8.55709 8.55878C9.33077 7.7674 9.95387 7.33742 11.0032 6.87076ZM31.622 10.5751C30.7186 9.64802 29.7787 9.21664 28.1042 8.9607C27.5666 8.87852 26.6107 8.86216 21.5985 8.84919C18.367 8.84083 15.3618 8.85646 14.9203 8.88398C12.8634 9.01204 11.5364 9.50499 10.522 10.5179C9.59946 11.4392 9.11444 12.5278 8.90386 14.1496C8.70092 15.7119 8.64352 25.1566 8.82019 27.9074C8.91743 29.4218 9.21491 30.6154 9.70551 31.4601C9.9551 31.8898 10.6222 32.6365 11.043 32.9571C11.7088 33.4645 12.7856 33.8685 13.8967 34.0279C14.148 34.064 15.0848 34.1236 15.9784 34.1605C17.9569 34.2421 26.5515 34.1938 27.5916 34.0953C29.5118 33.9133 30.7546 33.371 31.7428 32.284C32.6981 31.2331 33.1032 30.0993 33.2741 27.9982C33.3262 27.3579 33.3477 25.4627 33.3477 21.5176C33.3475 14.6697 33.3041 13.9304 32.82 12.5334C32.5353 11.7114 32.2079 11.1764 31.622 10.5751ZM27.2987 13.2148C27.3001 12.4258 27.6133 11.8948 28.2803 11.5511C28.572 11.4007 28.7112 11.3664 29.03 11.3664C29.6027 11.3664 29.9398 11.5069 30.329 11.908C30.7476 12.3393 30.8791 12.7052 30.8396 13.3287C30.7949 14.0338 30.459 14.5627 29.8643 14.8639C29.5834 15.0061 29.4559 15.033 29.0604 15.033C28.5067 15.033 28.178 14.8963 27.8041 14.5107C27.4296 14.1244 27.2976 13.786 27.2987 13.2148ZM15.5979 15.8735C16.7533 14.6818 18.1188 13.9335 19.6629 13.646C20.3029 13.5268 21.7164 13.5246 22.3693 13.6418C23.9688 13.9289 25.4201 14.7304 26.5811 15.9677C27.4315 16.8738 27.9779 17.7956 28.3558 18.9619C28.6335 19.8183 28.7373 20.5058 28.7373 21.4873C28.7373 22.4746 28.6335 23.1562 28.3496 24.0327C27.9552 25.2501 27.3263 26.2686 26.3916 27.2036C25.3545 28.2411 24.2819 28.8581 22.8994 29.2125C19.3767 30.1156 15.7574 28.3876 14.1151 25.0186C13.577 23.9146 13.3347 22.8181 13.3347 21.4873C13.3347 19.2784 14.0734 17.4459 15.5979 15.8735ZM25.9509 22.4731C26.4687 19.6813 24.6843 16.955 21.99 16.4213C21.463 16.317 20.558 16.3197 20.0349 16.4272C18.2809 16.7877 16.807 18.1681 16.2499 19.9722C16.0395 20.6534 15.9845 21.773 16.1259 22.4929C16.4932 24.3626 17.7883 25.842 19.5715 26.4288C19.9745 26.5615 20.2183 26.5987 20.8347 26.6217C21.7036 26.654 22.1406 26.582 22.8921 26.2822C24.4312 25.6684 25.6367 24.1673 25.9509 22.4731Z" fill="white"/>
</svg>
