<svg width="42" height="42" viewBox="0 0 42 42" fill="none" xmlns="http://www.w3.org/2000/svg">
<path fill-rule="evenodd" clip-rule="evenodd" d="M4.25165 0.103184C3.40154 0.263082 2.30149 0.869833 1.59739 1.56718C0.866381 2.29135 0.277374 3.38275 0.106932 4.32935C-0.0356439 5.12091 -0.0356439 36.8663 0.106932 37.6579C0.277374 38.6045 0.866381 39.6959 1.59739 40.4201C2.32869 41.1444 3.41099 41.7255 4.34078 41.893C5.13211 42.0357 36.8679 42.0357 37.6592 41.893C38.6055 41.7225 39.6966 41.1334 40.4206 40.4021C41.1447 39.6706 41.7256 38.588 41.8931 37.6579C42.0356 36.8663 42.0356 5.12091 41.8931 4.32935C41.5261 2.29154 39.6964 0.461259 37.6592 0.0942109C36.9306 -0.0370482 4.95202 -0.0284569 4.25165 0.103184ZM12.4663 8.52706C13.919 9.19243 14.5894 10.9755 13.9231 12.4021C12.827 14.7492 9.59452 14.7542 8.51394 12.4103C8.17057 11.6656 8.17057 10.7521 8.51394 10.0074C9.22281 8.46988 10.9384 7.82733 12.4663 8.52706ZM14.2009 25.2655L14.2254 33.7854H11.2187H8.21208V25.3053C8.21208 20.6412 8.24129 16.7959 8.27707 16.7601C8.31277 16.7244 9.65483 16.7066 11.2593 16.7204L14.1766 16.7456L14.2009 25.2655ZM22.3361 17.8596V19.0215L22.8702 18.431C23.4834 17.7532 23.9734 17.4389 24.9125 17.1211C26.1637 16.6977 28.2811 16.6415 29.749 16.9927C31.6371 17.4445 32.9224 18.7889 33.4028 20.8147C33.717 22.1395 33.7862 23.5771 33.7871 28.7976L33.7879 33.7854H31.2158H28.6438L28.6134 28.6544C28.5834 23.5945 28.58 23.5143 28.3636 22.8702C28.0833 22.0352 27.3754 21.2602 26.7388 21.091C26.2809 20.9694 25.1861 20.9468 24.7567 21.0503C23.9307 21.2493 23.2443 21.8842 22.9211 22.7484C22.5933 23.6245 22.5285 24.716 22.5277 29.372L22.5269 33.7887L20.0695 33.7632L17.6122 33.7377L17.5875 25.3371C17.574 20.7168 17.5833 16.8829 17.6084 16.8172C17.6431 16.7262 18.2099 16.6979 19.995 16.6979H22.3361V17.8596Z" fill="white"/>
</svg>
